<svg style="position: absolute; width: 0; height: 0; overflow: hidden;" aria-hidden="true" version="1.1" xmlns="http://www.w3.org/2000/svg" xmlns:xlink="http://www.w3.org/1999/xlink">
    <style>
        .default-palette, .palette0 {color: currentColor;
            --color0: #2e2f42;
            --color1: #4d5ae5;
            --color2: #f4f4fd;
            --color3: #8e8f99;
            --color4: #fff;
            --color5: #404bbf;
        }
    </style>
    <defs>
        <symbol id="icon-check" viewBox="0 0 16 16">
           <path
    fill="currentColor"
    d="M11.4456 4.2551C11.6184 4.0897 11.8483 3.9982 12.0869 4c0.2386 0.0018 0.4672 0.0968 0.6375 0.2648 0.1703 0.168 0.269 0.396 0.2753 0.6357 0.00063 0.2398-0.0803 0.4727-0.2415 0.6495l-4.8946 6.1544c-0.0842 0.0911-0.1858 0.1642-0.2987 0.215S7.33 11.9975 7.2064 11.9998c-0.1237 0.00023-0.2466-0.0205-0.3613-0.067-0.1147-0.0465-0.2189-0.1158-0.3064-0.2038L3.2928 8.4656C3.2024 8.381 3.1299 8.2788 3.0797 8.1654 3.0294 8.0519 3.0023 7.9294 3.0001 7.8052 2.998 7.681 3.0207 7.5577 3.067 7.4425 3.1132 7.3273 3.1821 7.2227 3.2695 7.1348c0.0873-0.0878 0.1914-0.157 0.306-0.2036C3.69 6.8847 3.8127 6.8619 3.9363 6.8641 4.0598 6.8662 4.1816 6.8934 4.2945 6.944 4.4073 6.9945 4.5089 7.0674 4.5931 7.1583l2.5688 2.5814 4.2604-5.4575c0.00076-0.00095 0.0158-0.0186 0.0245-0.0271z"
  />
</symbol>
        <symbol id="icon-subscribe" viewBox="0 0 24 24" fill="none">
            <path fill="var(--color4, #fff)" d="M24 2 0 13.25l7.6699 2.3672L19.5 6.375 10.5017 16.4913l73e-4 23e-4-9e-3-23e-4V22l4.3013-4.1817 5.4488 1.6817z" />
        </symbol>
        <symbol id="icon-person" viewBox="0 0 18 18" fill="none">
            <path fill="currentColor" d="M9 9c1.6575 0 3-1.3425 3-3s-1.3425-3-3-3-3 1.3425-3 3 1.3425 3 3 3zM9 10.5c-2.0025 0-6 1.005-6 3v0.75C3 14.6625 3.3375 15 3.75 15h10.5c0.4125 0 0.75-0.3375 0.75-0.75V13.5c0-1.995-3.9975-3-6-3z" />
            <defs>
                <clipPath id="clip0_297039_1139">
                    <rect fill="#fff" width="18" height="18" />
                </clipPath>
            </defs>
        </symbol>
        <symbol id="icon-close" viewBox="0 0 8 8" fill="none">
            <path fill="currentColor" d="M8 0.8057 7.1943 0 4 3.1943 0.8057 0 0 0.8057 3.1943 4 0 7.1943 0.8057 8 4 4.8057 7.1943 8 8 7.1943 4.8057 4z" />
            <defs>
                <clipPath id="clip0_1053762_6">
                    <rect fill="#fff" width="8" height="8" />
                </clipPath>
            </defs>
        </symbol>
        <symbol id="icon-technologies" viewBox="0 0 264 112" fill="var(--color1, #4d5ae5)">
            <rect stroke="var(--color3, #8e8f99)" fill="var(--color2, #f4f4fd)" width="263" height="111" rx="3.5" x="0.5" y="0.5" />
            <path d="M163.948 33.0481c-0.126-0.3851-0.459-0.6666-0.861-0.7254l-3.82-0.5557-1.71-3.4624c-0.359-0.7297-1.555-0.7297-1.913 0l-1.71 3.4624-3.821 0.5559c-0.402 0.0586-0.735 0.3392-0.862 0.7253-0.124 0.3862-0.021 0.8107 0.27 1.0934l2.766 2.6956-0.653 3.8059c-0.068 0.4 0.096 0.8043 0.424 1.0433 0.332 0.2411 0.765 0.2709 1.124 0.081L156.6 39.97l3.418 1.7974c0.155 0.0821 0.327 0.1226 0.497 0.1226 0.22 0 0.441-0.0682 0.627-0.2037 0.328-0.2389 0.493-0.6433 0.423-1.0433l-0.652-3.8059 2.766-2.6956c0.289-0.2837 0.394-0.7072 0.269-1.0934zM159.022 35.702c-0.25 0.2443-0.366 0.5984-0.306 0.9441l0.382 2.2282-2.001-1.0517c-0.156-0.0822-0.326-0.1227-0.497-0.1227s-0.34 0.0405-0.497 0.1227l-2.001 1.0517 0.381-2.2282c0.06-0.3457-0.055-0.6987-0.306-0.9441l-1.62-1.5786 2.238-0.3254c0.348-0.0501 0.647-0.2687 0.803-0.5835l1.001-2.0267 1 2.0267c0.156 0.3146 0.456 0.5334 0.804 0.5835l2.237 0.3254z" />
            <path d="M152.267 65.0444h-2.133v2.1334h2.133z" />
            <path d="M152.267 69.3112h-2.133v2.1334h2.133z" />
            <path d="M154.4 67.1778h-2.133v2.1334h2.133z" />
            <path d="M150.134 67.1778H148v2.1334h2.134z" />
            <path d="M144.8 76.778h-2.133v2.1333h2.133z" />
            <path d="M144.8 81.0446h-2.133v2.1335h2.133z" />
            <path d="M146.934 78.9113H144.8v2.1335h2.134z" />
            <path d="M142.667 78.9113h-2.134v2.1335h2.134z" />
            <path d="M132 72.5113h-2.133v2.1334H132z" />
            <path d="M132 76.778h-2.133v2.1333H132z" />
            <path d="M134.133 74.6445H132v2.1334h2.133z" />
            <path d="M129.867 74.6445h-2.134v2.1334h2.134z" />
            <path d="M111.733 36.2439H109.6v2.1334h2.133z" />
            <path d="M111.733 40.5108H109.6v2.1334h2.133z" />
            <path d="M113.866 38.3774h-2.133v2.1334h2.133z" />
            <path d="M109.6 38.3774h-2.134v2.1334h2.134z" />
            <path fill="var(--color0, #2e2f42)" d="M149.43 52.3189c-0.575-0.7755-1.419-1.2746-2.377-1.4091-0.962-0.1365-1.912 0.1162-2.68 0.704l-2.503 1.9189-1e-3 11e-4-3.796 2.8342-2.715-1.0816c4.842-2.1728 8.227-7.0166 8.227-12.6402 0-7.646-6.245-13.8669-13.922-13.8669s-13.922 6.2209-13.922 13.8669c0 2.7713 0.828 5.3483 2.24 7.5168l-5.528-0.048c-3e-3 0-6e-3 0-0.01 0-0.017 0-0.031 85e-4-0.047 97e-4-0.105 42e-4-0.209 0.0256-0.31 0.0618-0.026 97e-4-0.052 0.015-0.077 0.0267-0.012 53e-4-0.025 63e-4-0.038 0.0127l-6.466 3.1926c-1e-3 0-2e-3 0-2e-3 1e-3l-3.787 1.821c-0.042 0.0181-0.084 0.0426-0.126 0.0704-1.509 1.0047-2.0236 2.9781-1.197 4.5909 0.441 0.8576 1.191 1.4892 2.112 1.7782 0.355 0.1108 0.718 0.1653 1.079 0.1653 0.579 0 1.153-0.1418 1.678-0.4223l2.776-1.4763 4.528-2.3382 2.714-0.016-10.884 10.8312c-1e-3 11e-4-2e-3 11e-4-3e-3 21e-4l-2.677 2.6667c-0.633 0.6294-0.981 1.4645-0.981 2.3553 0 0.8896 0.348 1.7269 0.981 2.3574 0.649 0.6464 1.504 0.9706 2.358 0.9706 0.856 0 1.709-0.3242 2.361-0.9706l2.628-2.6177 3.482-2.5995 1.801 1.7941-3.523 3.5083c-1e-3 12e-4-2e-3 12e-4-3e-3 22e-4l-2.678 2.6666c-0.632 0.6294-0.98 1.4645-0.98 2.3553 0 0.8896 0.348 1.7269 0.98 2.3574 0.65 0.6464 1.505 0.9707 2.36 0.9707 0.854 0 1.71-0.3243 2.36-0.9707l2.679-2.6667 4.285-4.2666c1e-3-12e-4 1e-3-22e-4 2e-3-33e-4l2.019-2-8e-3-75e-4c0.013-0.0128 0.031-0.0172 0.044-0.0309l10.332-11.3164 6.942 0.9877c0.05 75e-4 0.1 0.0107 0.15 0.0107 0.13 0 0.254-0.0309 0.375-0.0768 0.035-0.0127 0.066-0.0299 0.099-0.0469 0.039-0.0192 0.079-0.0298 0.115-0.0543l6.427-4.2667c0.024-0.016 0.036-0.0417 0.059-0.0587 0.025-0.0202 0.057-0.0287 0.081-0.0512l2.543-2.3819c1.323-1.2398 1.505-3.2707 0.424-4.7235zM104.261 59.5403c-0.347 0.1856-0.74 0.2229-1.117 0.1035-0.373-0.1163-0.676-0.3713-0.853-0.7158-0.322-0.6272-0.136-1.391 0.428-1.8037l2.628-1.2641 0.632 1.8486 0.266 0.7765zM111.255 55.8849l-3.096 1.6-0.511-1.4934-0.367-1.0731 4.053-2.0012zM141.454 42.644c0 1.8368-0.438 3.5692-1.198 5.119l-8.363-3.7984c-0.087-1.1467-0.682-2.1504-1.576-2.7756l2.928-9.7206c4.755 1.5126 8.209 5.9489 8.209 11.1756zM117.876 42.644c0-6.4694 5.289-11.7335 11.789-11.7335 0.506 0 1 0.0426 1.49 0.1045l-2.864 9.5074c-0.038-11e-4-0.075-0.0118-0.114-0.0118-2.065 0-3.745 1.6747-3.745 3.7335 0 2.0586 1.68 3.7334 3.745 3.7334 1.389 0 2.589-0.7669 3.236-1.8892l7.725 3.5095c-2.149 2.8928-5.589 4.7798-9.473 4.7798-6.5 0-11.789-5.2641-11.789-11.7336zM129.789 44.2441c0 0.8821-0.724 1.6-1.612 1.6-0.889 0-1.612-0.7179-1.612-1.6 0-0.8822 0.723-1.6001 1.612-1.6001 0.888 0 1.612 0.7179 1.612 1.6001zM104.93 74.2925c-0.473 0.4683-1.238 0.4673-1.709 11e-4-0.227-0.2272-0.352-0.5268-0.352-0.8458 0-0.3179 0.125-0.6177 0.352-0.8427l1.924-1.9169 1.702 1.695zM111.357 81.7594c-0.472 0.4682-1.238 0.4694-1.709 11e-4-0.228-0.2272-0.352-0.5269-0.352-0.8459 0-0.3179 0.124-0.6176 0.352-0.8426l1.925-1.9179 0.805 0.8011 0.898 0.8939zM118.321 74.8217c-1e-3 1e-3-2e-3 1e-3-3e-3 21e-4l-3.53 3.52-0.806-0.8011-0.898-0.8939 3.527-3.5104c0 0 0 0 0-1e-3 1e-3-11e-4 2e-3-11e-4 3e-3-21e-4 0.08-0.08 0.13-0.176 0.179-0.2709 0.014-0.0278 0.041-0.0513 0.053-0.08 0.033-0.0821 0.038-0.1706 0.051-0.2572 6e-3-0.0491 0.028-0.0948 0.028-0.1451 0-0.0715-0.026-0.1407-0.041-0.2112-0.013-0.064-0.013-0.1292-0.037-0.1909-0.041-0.1003-0.11-0.1888-0.183-0.2753-0.02-0.0235-0.027-0.0533-0.05-0.0757 0 0 0 0-1e-3 0-1e-3-1e-3-1e-3-33e-4-2e-3-43e-4l-3.214-3.2c-0.034-0.0341-0.078-0.048-0.116-0.0768-0.057-0.0437-0.111-0.0842-0.174-0.1152-0.061-0.0299-0.123-0.048-0.187-0.0651-0.068-0.0193-0.134-0.0342-0.206-0.0395-0.065-43e-4-0.126 21e-4-0.191 96e-4-0.071 85e-4-0.138 0.0181-0.208 0.0405-0.067 0.0214-0.126 0.0544-0.188 0.0896-0.04 0.0224-0.085 0.0299-0.122 0.0576l-3.547 2.6476-1.801-1.7942 4.798-4.7723 8.721 8.5773zM131.958 60.7883c-0.03-42e-4-0.059 75e-4-0.09 54e-4-0.078-43e-4-0.153 11e-4-0.231 0.0139-0.06 0.0106-0.118 0.0223-0.176 0.0426-0.068 0.0235-0.13 0.0555-0.193 0.0939-0.06 0.0362-0.114 0.0746-0.166 0.1226-0.026 0.0224-0.057 0.0331-0.08 0.0586l-9.397 10.2914-8.656-8.5132 5.666-5.6364c0.418-0.416 0.42-1.0912 4e-3-1.5094-0.21-0.2101-0.487-0.3136-0.763-0.3125v-1e-3l-4.437 0.0267 0.055-3.215 6.208 0.0534c2.53 2.5878 6.059 4.2017 9.963 4.2017 0.875 0 1.728-0.0906 2.559-0.2454 0.08 0.064 0.159 0.1292 0.259 0.1697l4.819 1.92 0.305 1.5168 0.357 1.7706zM140.041 61.1446l-0.626-3.1158 2.892-2.1601 0.758 1.0048 1.136 1.5083zM147.548 55.4826l-1.676 1.5702-1.862-2.4726 1.663-1.2746c0.31-0.2389 0.701-0.336 1.085-0.2859 0.387 0.0544 0.728 0.256 0.961 0.5685 0.433 0.5835 0.359 1.3974-0.171 1.8944z" />
            <path fill="var(--color0, #2e2f42)" d="M127.204 61.0881l-4.286-4.2667c-0.415-0.4149-1.089-0.4149-1.505 0l-4.285 4.2667c-0.2 0.2016-0.313 0.4725-0.313 0.7562 0 0.2838 0.112 0.5558 0.313 0.7563l4.285 4.2667c0.208 0.2069 0.481 0.3104 0.753 0.3104s0.545-0.1035 0.752-0.3104l4.286-4.2667c0.201-0.2005 0.315-0.4725 0.315-0.7563 0-0.2837-0.113-0.5557-0.315-0.7562zM122.166 64.606l-2.773-2.7617 2.773-2.7616 2.775 2.7616z" />
            <path fill="var(--color0, #2e2f42)" d="M134.329 34.1415l-0.516 2.0716c0.142 0.0352 3.476 0.9035 3.476 4.2977h2.133c0-4.0343-3.331-5.9309-5.093-6.3693z" />
            <path fill="var(--color0, #2e2f42)" d="M139.422 42.644h-2.133v2.1335h2.133z" />
        </symbol>
        <symbol id="icon-strategy" viewBox="0 0 264 112" fill="none">
            <rect stroke="var(--color3, #8e8f99)" fill="var(--color2, #f4f4fd)" width="263" height="111" rx="3.5" x="0.5" y="0.5" />
            <path fill="var(--color0, #2e2f42)" d="M161.546 68.1952 144.66 51.1851l1.874-9.231c0.484 0.1888 0.998 0.2875 1.517 0.2912h0.013c2.384 0.0282 4.34-1.882 4.368-4.2665 0.029-2.3845-1.882-4.3404-4.266-4.3687-2.385-0.0281-4.341 1.882-4.369 4.2666-6e-3 0.5102 0.078 1.0174 0.25 1.4982l-9.92 1.2107L117.945 24.32c-0.198-0.2025-0.469-0.3177-0.753-0.32-0.28 15e-4-0.548 0.1129-0.747 0.3104l-3.025 3.008c-0.416 0.4165-0.416 1.0917 0 1.5083l1.628 1.6512c-6.306 11.5958-4.258 25.9556 5.039 35.3258 0.085 0.0816 0.184 0.1476 0.292 0.1952-0.067 0.361-0.102 0.7272-0.104 1.0944v12.3734h-12.8c-2.944 34e-4-5.33 2.3893-5.334 5.3333v2.1333c0 0.5891 0.478 1.0667 1.067 1.0667h49.067c0.589 0 1.066-0.4776 1.066-1.0667V84.8c-3e-3-2.944-2.389-5.3299-5.333-5.3333h-12.8v-5.4838c2.005 0.4206 4.048 0.635 6.097 0.64 4.916-53e-4 9.754-1.2309 14.08-3.5669l1.636 1.6459c0.199 0.2025 0.47 0.3177 0.754 0.32 0.28-15e-4 0.548-0.113 0.746-0.3104l3.025-3.008c0.417-0.4166 0.417-1.0918 0-1.5083zM146.56 36.4661c0.835-0.8309 2.186-0.8272 3.017 82e-4 0.83 0.8353 0.827 2.1861-9e-3 3.0169-0.399 0.3977-0.941 0.6209-1.505 0.6208h-6e-3c-1.178-61e-4-2.128-0.9661-2.122-2.1444 3e-3-0.564 0.229-1.1037 0.629-1.5015zM144.049 43.4752l-1.197 5.8912-2.351-2.3648zM142.837 41.6715l-3.84 3.8176-2.971-2.9867zM148.008 81.6c1.767 0 3.2 1.4327 3.2 3.2v1.0667h-46.933V84.8c0-1.7673 1.432-3.2 3.2-3.2zM133.075 77.3333v2.1334h-10.667v-2.1334zM122.408 75.2v-8.1067c0-2.5877 2.393-4.6933 5.333-4.6933 2.941 0 5.334 2.1056 5.334 4.6933V75.2zM135.208 71.808v-4.7147c0-3.7642-3.349-6.8266-7.467-6.8266-2.662-0.0408-5.151 1.3142-6.562 3.5722-8.115-8.5476-9.943-21.2904-4.557-31.7742l37.204 37.4169c-5.745 2.9224-12.331 3.7452-18.618 2.3264zM157.786 70.4405l-1.503-1.5114-39.102-39.3376-1.509-1.5126 1.509-1.504 15.87 15.9595c8e-3 0 0.012 0.0139 0.02 0.0192L159.3 68.9365z" />
            <path fill="var(--color1, #4d5ae5)" d="M127.751 64.5333h-0.01c-1.767-27e-4-3.202 1.4279-3.204 3.1952-3e-3 1.7673 1.428 3.2021 3.195 3.2048h9e-3c1.768 27e-4 3.203-1.4279 3.205-3.1952 3e-3-1.7673-1.428-3.2021-3.195-3.2048zM128.498 68.4896c-0.201 0.1997-0.473 0.3114-0.757 0.3104-0.589-31e-4-1.064-0.4831-1.061-1.0722 2e-3-0.282 0.115-0.5518 0.315-0.7508 0.198-0.1974 0.466-0.3089 0.746-0.3104 0.59 31e-4 1.065 0.4831 1.062 1.0722-2e-3 0.282-0.115 0.5518-0.315 0.7508z" />
        </symbol>
        <symbol id="icon-punctuality" viewBox="0 0 264 112" fill="var(--color1, #4d5ae5)">
            <rect stroke="var(--color3, #8e8f99)" fill="var(--color2, #f4f4fd)" width="263" height="111" rx="3.5" x="0.5" y="0.5" />
            <path fill="var(--color0, #2e2f42)" d="M162.593 54.6025C162.59 37.6978 148.883 23.9966 131.978 24s-30.606 13.7109-30.603 30.6157c3e-3 13.3159 8.614 25.1021 21.299 29.1524 0.121 0.0381 0.247 0.0576 0.373 0.0571 0.242-5e-4 0.478-0.0649 0.685-0.1875 0.27-0.1597 0.472-0.4136 0.567-0.7129l7.73-24.5c2.113-0.0107 3.817-1.7329 3.806-3.8457-0.011-2.1133-1.732-3.8174-3.846-3.8066-0.568 24e-4-1.129 0.1333-1.64 0.3828l-10.212-10.2134c-0.507-0.4893-1.314-0.4751-1.803 0.0312-0.478 0.4947-0.478 1.2779 0 1.7725l10.207 10.2183c-0.784 1.5986-0.336 3.5283 1.072 4.6181l-7.365 23.3457c-14.556-5.3618-22.009-21.5078-16.647-36.0634 5.362-14.5557 21.508-22.0088 36.064-16.647 14.555 5.3618 22.008 21.5083 16.647 36.0635-2.62 7.1113-8.002 12.8623-14.925 15.9467l-0.796-3.7485c-0.145-0.689-0.822-1.1294-1.511-0.9834-0.218 0.0464-0.419 0.1485-0.585 0.2964l-7.674 6.8511c-0.527 0.4682-0.573 1.2744-0.105 1.8008 0.153 0.1709 0.348 0.2978 0.567 0.3676l9.797 3.127c0.67 0.2153 1.389-0.1533 1.604-0.8242 0.068-0.2119 0.08-0.4375 0.034-0.6553l-0.782-3.6782c11.328-4.7759 18.684-15.8843 18.657-28.1783zM131.984 53.3272c0.704 0 1.276 0.5712 1.276 1.2753 0 0.7046-0.572 1.2754-1.276 1.2754s-1.275-0.5708-1.275-1.2754c0-0.7041 0.571-1.2753 1.275-1.2753zM136.185 83.0552l4.368-3.8965 1.206 5.6807z" />
            <path d="M130.709 30.3701v2.5508c0 0.7046 0.571 1.2754 1.275 1.2754s1.276-0.5708 1.276-1.2754v-2.5508c0-0.7041-0.572-1.2754-1.276-1.2754s-1.275 0.5713-1.275 1.2754z" />
            <path d="M107.752 53.3271c-0.705 0-1.275 0.5713-1.275 1.2754 0 0.7046 0.57 1.2754 1.275 1.2754h2.551c0.704 0 1.275-0.5708 1.275-1.2754 0-0.7041-0.571-1.2754-1.275-1.2754z" />
            <path d="M156.216 55.8779c0.705 0 1.276-0.5708 1.276-1.2754 0-0.7041-0.571-1.2754-1.276-1.2754h-2.551c-0.704 0-1.275 0.5713-1.275 1.2754 0 0.7046 0.571 1.2754 1.275 1.2754z" />
        </symbol>
        <symbol id="icon-phone" viewBox="0 0 18 24" fill="none">
            <path fill="currentColor" d="M14.7263 13.8651l-1.8382-0.2099c-0.4414-0.0506-0.8756 0.1014-1.1868 0.4125l-1.3316 1.3316c-2.048-1.0421-3.7269-2.7138-4.769-4.769l1.3388-1.3389C7.2507 8.9803 7.4026 8.546 7.352 8.1046L7.1421 6.2809C7.0553 5.55 6.4401 5 5.702 5H4.45C3.6323 5 2.952 5.6803 3.0027 6.498c0.3835 6.1803 5.3262 11.1158 11.4992 11.4993 0.8178 0.0507 1.498-0.6296 1.498-1.4473v-1.252c73e-4-0.7309-0.5427-1.346-1.2736-1.4329z" />
            <defs>
                <clipPath id="clip0_297083_8305">
                    <rect fill="#fff" width="18" height="24" />
                </clipPath>
            </defs>
        </symbol>
        <symbol id="icon-email" viewBox="0 0 18 24" fill="none">
            <path fill="currentColor" d="M15 6H3C2.175 6 1.5075 6.675 1.5075 7.5l-75e-4 9C1.5 17.325 2.175 18 3 18h12c0.825 0 1.5-0.675 1.5-1.5v-9C16.5 6.675 15.825 6 15 6zM14.7 9.1875l-5.3025 3.315c-0.24 0.15-0.555 0.15-0.795 0L3.3 9.1875C3.1125 9.0675 3 8.865 3 8.6475 3 8.145 3.5475 7.845 3.975 8.1075L9 11.25l5.025-3.1425C14.4525 7.845 15 8.145 15 8.6475c0 0.2175-0.1125 0.42-0.3 0.54z" />
        </symbol>
        <symbol id="icon-diligence" viewBox="0 0 264 112" fill="none">
            <rect stroke="var(--color3, #8e8f99)" fill="var(--color2, #f4f4fd)" width="263" height="111" rx="3.5" x="0.5" y="0.5" />
            <g fill="var(--color1, #4d5ae5)" clip-path="url(#clip0_1004689_1485)">
                <path d="M129.851 53.9292h2.132v9.595h-2.132z" />
                <path d="M138.38 58.1936h2.132v5.3306h-2.132z" />
                <path d="M121.322 61.392h2.132v2.1322h-2.132z" />
                <path d="M114.926 60.3258h2.132v3.1983h-2.132z" />
                <path fill="var(--color0, #2e2f42)" d="M103.198 80.5819h51.174c1.766 0 3.198-1.432 3.198-3.1983v-4.2644c0-1.7663-1.432-3.1983-3.198-3.1983h-1.067V43.3343l6.056-5.7366c1.406 0.6928 3.107 0.2722 4.027-0.9974 0.92-1.2691 0.791-3.0167-0.305-4.1369-1.097-1.1203-2.841-1.2874-4.13-0.3956-1.289 0.8922-1.747 2.5835-1.085 4.0041l-4.563 4.3254v-2.4597c0-1.7663-1.432-3.1983-3.198-3.1983h-42.644c-1.767 0-3.199 1.432-3.199 3.1983v31.9833h-1.066c-1.766 0-3.198 1.432-3.198 3.1983v4.2644c0 1.7663 1.432 3.1983 3.198 3.1983zM160.768 33.6732c0.589 0 1.066 0.4773 1.066 1.0661 0 0.5887-0.477 1.0661-1.066 1.0661s-1.066-0.4774-1.066-1.0661c0-0.5888 0.477-1.0661 1.066-1.0661zM106.397 37.9376c0-0.5887 0.477-1.0661 1.066-1.0661h42.644c0.589 0 1.066 0.4774 1.066 1.0661v4.4773l-2.132 2.0261v-4.3712c0-0.5887-0.477-1.0661-1.066-1.0661h-38.38c-0.589 0-1.066 0.4774-1.066 1.0661v26.6527c0 0.5888 0.477 1.0661 1.066 1.0661h38.38c0.589 0 1.066-0.4773 1.066-1.0661V47.3738l2.132-2.0203v24.5674h-44.776zM115.992 51.797c-1.443-41e-4-2.709 0.9568-3.093 2.3472s0.21 2.8652 1.451 3.6013c1.24 0.736 2.82 0.5512 3.856-0.4519l3.706 1.8595c0.43 0.2155 0.953 0.1145 1.273-0.2452l7.877-8.8626 7.744 5.8027c0.416 0.3113 0.996 0.278 1.372-0.0786l6.731-6.3753v16.2623h-36.248V41.1359h36.248v5.3207l-7.543 7.1431-7.809-5.8542c-0.444-0.3321-1.068-0.2697-1.436 0.1442l-7.986 8.9854-2.986-1.493c0.022-0.128 0.036-0.2571 0.041-0.3868 0-1.7662-1.432-3.1983-3.198-3.1983zM117.058 54.9953c0 0.5888-0.478 1.0662-1.066 1.0662-0.589 0-1.066-0.4774-1.066-1.0662 0-0.5887 0.477-1.0661 1.066-1.0661 0.588 0 1.066 0.4774 1.066 1.0661zM123.454 72.0531h10.661v1.0661c0 0.5887-0.477 1.0661-1.066 1.0661h-8.529c-0.588 0-1.066-0.4774-1.066-1.0661zM102.132 73.1192c0-0.5888 0.478-1.0661 1.066-1.0661h18.124v1.0661c0 1.7663 1.432 3.1983 3.198 3.1983h8.529c1.767 0 3.199-1.432 3.199-3.1983v-1.0661h18.124c0.588 0 1.066 0.4773 1.066 1.0661v4.2644c0 0.5888-0.478 1.0661-1.066 1.0661h-51.174c-0.588 0-1.066-0.4773-1.066-1.0661z" />
            </g>
            <defs>
                <clipPath id="clip0_1004689_1485">
                    <rect fill="#fff" transform="translate(100 24)" width="64" height="64" />
                </clipPath>
            </defs>
        </symbol>
        <symbol id="icon-instagram" viewBox="0 0 40 40" fill="none">
            <path fill="currentColor" d="M40 20c0 5.5228-2.2386 10.5228-5.8579 14.1421S25.5228 40 20 40 9.4772 37.7614 5.8579 34.1421C2.2386 30.5228 0 25.5228 0 20S2.2386 9.4772 5.8579 5.8579C9.4772 2.2386 14.4772 0 20 0s10.5228 2.2386 14.1421 5.8579C37.7614 9.4772 40 14.4772 40 20z" />
            <g fill="var(--color2, #f4f4fd)" clip-path="url(#clip0_297080_7893)">
                <path d="M31.9765 15.0561c-0.0562-1.2752-0.2624-2.1519-0.5578-2.9116-0.3048-0.8064-0.7736-1.5283-1.3879-2.1285-0.6001-0.6095-1.3268-1.0831-2.1239-1.3831-0.764-0.2954-1.6361-0.5016-2.9114-0.5578C23.7108 8.0141 23.303 8 20.0445 8c-3.2584 0-3.6663 0.0141-4.9463 0.0703-1.2752 0.0563-2.1519 0.2627-2.9114 0.5579-0.8065 0.3047-1.5285 0.7736-2.1286 1.3878-0.6095 0.6002-1.0829 1.3269-1.3831 2.1239-0.2954 0.7643-0.5016 1.6362-0.5578 2.9114-0.061 1.2847-0.0751 1.6926-0.0751 4.951 0 3.2585 0.0141 3.6663 0.0703 4.9463 0.0562 1.2752 0.2626 2.1519 0.558 2.9116 0.3048 0.8064 0.7782 1.5283 1.3877 2.1285 0.6001 0.6095 1.3268 1.0831 2.1239 1.3831 0.7642 0.2954 1.6362 0.5016 2.9116 0.5578 1.2797 0.0564 1.6878 0.0703 4.9462 0.0703 3.2585 0 3.6663-0.0139 4.9463-0.0703 1.2752-0.0562 2.1519-0.2624 2.9114-0.5578 1.6129-0.6236 2.8881-1.8989 3.5117-3.5116 0.2953-0.7642 0.5017-1.6364 0.5579-2.9116 0.0562-1.28 0.0703-1.6878 0.0703-4.9463 0-3.2584-48e-4-3.6663-0.061-4.9462zM29.8153 24.8549c-0.0517 1.1721-0.2486 1.805-0.4126 2.227-0.4033 1.0455-1.2331 1.8753-2.2787 2.2786-0.4219 0.1641-1.0595 0.361-2.227 0.4124-1.2659 0.0564-1.6455 0.0704-4.8477 0.0704-3.2023 0-3.5867-0.014-4.848-0.0704-1.1721-0.0514-1.805-0.2483-2.227-0.4124-0.5203-0.1923-0.9939-0.4971-1.3783-0.8956-0.3985-0.3891-0.7032-0.858-0.8955-1.3783-0.1641-0.4219-0.361-1.0596-0.4125-2.227-0.0564-1.2659-0.0703-1.6457-0.0703-4.8479s0.0139-3.5867 0.0703-4.8478c0.0515-1.1721 0.2484-1.805 0.4125-2.227 0.1923-0.5204 0.497-0.9939 0.9003-1.3785 0.389-0.3985 0.8578-0.7032 1.3783-0.8953 0.422-0.1641 1.0597-0.361 2.227-0.4127 1.2659-0.0562 1.6457-0.0703 4.8477-0.0703 3.207 0 3.5867 0.0141 4.848 0.0703 1.1721 0.0517 1.805 0.2486 2.227 0.4127 0.5203 0.1921 0.9939 0.4968 1.3783 0.8953 0.3985 0.3892 0.7033 0.8581 0.8956 1.3785 0.164 0.422 0.3609 1.0595 0.4126 2.227 0.0562 1.2659 0.0703 1.6456 0.0703 4.8478s-0.0141 3.5773-0.0703 4.8432z" />
                <path d="M20.0445 13.8369c-3.4036 0-6.1652 2.7614-6.1652 6.1653 0 3.4038 2.7616 6.1652 6.1652 6.1652 3.4039 0 6.1653-2.7614 6.1653-6.1652 0-3.4039-2.7614-6.1653-6.1653-6.1653zM20.0445 24.0014c-2.2081 0-3.9992-1.7909-3.9992-3.9992s1.7911-3.9993 3.9992-3.9993c2.2084 0 3.9993 1.791 3.9993 3.9993s-1.7909 3.9992-3.9993 3.9992z" />
                <path d="M27.893 13.5934c0 0.7948-0.6444 1.4393-1.4395 1.4393-0.7948 0-1.4393-0.6445-1.4393-1.4393 0-0.7951 0.6445-1.4393 1.4393-1.4393 0.7951 0 1.4395 0.6442 1.4395 1.4393z" />
            </g>
            <defs>
                <clipPath id="clip0_297080_7893">
                    <rect fill="#fff" transform="translate(8 8)" width="24" height="24" />
                </clipPath>
            </defs>
        </symbol>
        <symbol id="icon-twitter" viewBox="0 0 40 40" fill="none">
            <path fill="currentColor" d="M40 20c0 5.5228-2.2386 10.5228-5.8579 14.1421S25.5228 40 20 40 9.4772 37.7614 5.8579 34.1421C2.2386 30.5228 0 25.5228 0 20S2.2386 9.4772 5.8579 5.8579C9.4772 2.2386 14.4772 0 20 0s10.5228 2.2386 14.1421 5.8579C37.7614 9.4772 40 14.4772 40 20z" />
            <path fill="var(--color2, #f4f4fd)" d="M32 12.5585c-0.8925 0.3915-1.8435 0.651-2.835 0.777 1.02-0.609 1.7985-1.566 2.1645-2.7195-0.951 0.567-2.001 0.9675-3.12 1.191-0.903-0.9615-2.19-1.557-3.594-1.557-2.724 0-4.917 2.211-4.917 4.9215 0 0.39 0.033 0.765 0.114 1.122-4.0905-0.1995-7.71-2.16-10.1415-5.1465-0.4245 0.7365-0.6735 1.5795-0.6735 2.487 0 1.704 0.8775 3.2145 2.1855 4.089-0.7905-0.015-1.566-0.2445-2.223-0.606 0 0.015 0 0.0345 0 0.054 0 2.391 1.7055 4.377 3.942 4.8345-0.4005 0.1095-0.837 0.162-1.29 0.162-0.315 0-0.633-0.018-0.9315-0.084 0.6375 1.9485 2.4465 3.381 4.5975 3.4275-1.674 1.3095-3.7995 2.0985-6.1005 2.0985-0.4035 0-0.7905-0.018-1.1775-0.0675 2.1795 1.4055 4.7625 2.208 7.548 2.208 9.054 0 14.004-7.5 14.004-14.001 0-0.2175-75e-4-0.4275-0.018-0.636 0.9765-0.693 1.797-1.5585 2.466-2.5545z" />
        </symbol>
        <symbol id="icon-facebook" viewBox="0 0 40 40" fill="none">
            <path fill="currentColor" d="M40 20c0 5.5228-2.2386 10.5228-5.8579 14.1421S25.5228 40 20 40 9.4772 37.7614 5.8579 34.1421C2.2386 30.5228 0 25.5228 0 20S2.2386 9.4772 5.8579 5.8579C9.4772 2.2386 14.4772 0 20 0s10.5228 2.2386 14.1421 5.8579C37.7614 9.4772 40 14.4772 40 20z" />
            <path fill="var(--color2, #f4f4fd)" d="M23.997 11.985h2.191V8.169C25.81 8.117 24.51 8 22.996 8c-3.159 0-5.323 1.987-5.323 5.639V17h-3.486v4.266h3.486V32h4.274V21.267h3.345l0.531-4.266h-3.877v-2.939c1e-3-1.233 0.333-2.077 2.051-2.077z" />
        </symbol>
        <symbol id="icon-linkedin" viewBox="0 0 40 40" fill="none">
            <path fill="currentColor" d="M40 20c0 5.5228-2.2386 10.5228-5.8579 14.1421S25.5228 40 20 40 9.4772 37.7614 5.8579 34.1421C2.2386 30.5228 0 25.5228 0 20S2.2386 9.4772 5.8579 5.8579C9.4772 2.2386 14.4772 0 20 0s10.5228 2.2386 14.1421 5.8579C37.7614 9.4772 40 14.4772 40 20z" />
            <g fill="var(--color2, #f4f4fd)" clip-path="url(#clip0_297080_7896)">
                <path d="M31.9941 32v-1e-3h6e-3v-8.802c0-4.306-0.927-7.623-5.961-7.623-2.42 0-4.044 1.328-4.707 2.587h-0.07v-2.185h-4.773v16.023h4.97v-7.934c0-2.089 0.396-4.109 2.983-4.109 2.549 0 2.587 2.384 2.587 4.243V32z" />
                <path d="M8.3961 15.9771h4.976V32h-4.976z" />
                <path d="M10.8821 8c-1.591 0-2.882 1.291-2.882 2.882 0 1.591 1.291 2.909 2.882 2.909 1.591 0 2.882-1.318 2.882-2.909C13.7631 9.291 12.4721 8 10.8821 8z" />
            </g>
            <defs>
                <clipPath id="clip0_297080_7896">
                    <rect fill="#fff" transform="translate(8.00006 8)" width="24" height="24" />
                </clipPath>
            </defs>
        </symbol>
    </defs>
</svg>